<mxfile host="app.diagrams.net" modified="2020-08-18T07:58:40.315Z" agent="5.0 (X11)" etag="0e8kEIoyoGj-yMzzMXb5" version="13.6.2" type="github">
  <diagram id="EzlnWeQyP-FWii1oKa1x" name="Page-1">
    <mxGraphModel dx="3636" dy="1109" grid="1" gridSize="10" guides="1" tooltips="1" connect="1" arrows="1" fold="1" page="1" pageScale="1" pageWidth="850" pageHeight="1100" math="0" shadow="0">
      <root>
        <mxCell id="0" />
        <mxCell id="1" parent="0" />
        <mxCell id="Twf1BeBMCTiCZUWOUj3O-1" value="&lt;font style=&quot;font-size: 29px&quot;&gt;Openstack-controller&lt;/font&gt;" style="rounded=1;whiteSpace=wrap;html=1;strokeWidth=6;perimeterSpacing=4;strokeColor=#FF3333;" vertex="1" parent="1">
          <mxGeometry x="30" y="160" width="370" height="320" as="geometry" />
        </mxCell>
        <mxCell id="Twf1BeBMCTiCZUWOUj3O-2" value="&lt;font style=&quot;font-size: 29px&quot;&gt;Openstack-compute1&lt;/font&gt;" style="rounded=1;whiteSpace=wrap;html=1;strokeWidth=6;perimeterSpacing=4;strokeColor=#FF3333;" vertex="1" parent="1">
          <mxGeometry x="590" y="160" width="370" height="320" as="geometry" />
        </mxCell>
        <mxCell id="Twf1BeBMCTiCZUWOUj3O-3" value="&lt;font style=&quot;font-size: 29px&quot;&gt;Openstack-compute2&lt;/font&gt;" style="rounded=1;whiteSpace=wrap;html=1;strokeWidth=6;perimeterSpacing=4;strokeColor=#0000CC;" vertex="1" parent="1">
          <mxGeometry x="1150" y="160" width="370" height="320" as="geometry" />
        </mxCell>
        <mxCell id="Twf1BeBMCTiCZUWOUj3O-4" value="&lt;font style=&quot;font-size: 29px&quot;&gt;K8s-master&lt;/font&gt;" style="rounded=1;whiteSpace=wrap;html=1;strokeWidth=6;perimeterSpacing=4;strokeColor=#FF3333;" vertex="1" parent="1">
          <mxGeometry x="-530" y="160" width="370" height="320" as="geometry" />
        </mxCell>
        <mxCell id="Twf1BeBMCTiCZUWOUj3O-6" value="&lt;font style=&quot;font-size: 29px&quot;&gt;K8s-worker&lt;/font&gt;" style="rounded=1;whiteSpace=wrap;html=1;strokeWidth=6;perimeterSpacing=4;strokeColor=#FF3333;" vertex="1" parent="1">
          <mxGeometry x="-1090" y="160" width="370" height="320" as="geometry" />
        </mxCell>
        <mxCell id="Twf1BeBMCTiCZUWOUj3O-9" value="" style="endArrow=none;html=1;fillColor=#dae8fc;strokeColor=#6c8ebf;strokeWidth=11;exitX=0.463;exitY=0.002;exitDx=0;exitDy=0;exitPerimeter=0;" edge="1" parent="1">
          <mxGeometry width="50" height="50" relative="1" as="geometry">
            <mxPoint x="214.30399999999918" y="156.65600000000018" as="sourcePoint" />
            <mxPoint x="214.2899999999995" y="40" as="targetPoint" />
          </mxGeometry>
        </mxCell>
        <mxCell id="Twf1BeBMCTiCZUWOUj3O-10" value="" style="endArrow=none;html=1;fillColor=#dae8fc;strokeColor=#6c8ebf;strokeWidth=11;exitX=0.463;exitY=0.002;exitDx=0;exitDy=0;exitPerimeter=0;" edge="1" parent="1">
          <mxGeometry width="50" height="50" relative="1" as="geometry">
            <mxPoint x="774.3039999999992" y="159.99600000000018" as="sourcePoint" />
            <mxPoint x="774.2899999999995" y="43.34" as="targetPoint" />
          </mxGeometry>
        </mxCell>
        <mxCell id="Twf1BeBMCTiCZUWOUj3O-11" value="" style="endArrow=none;html=1;fillColor=#dae8fc;strokeColor=#6c8ebf;strokeWidth=11;exitX=0.463;exitY=0.002;exitDx=0;exitDy=0;exitPerimeter=0;" edge="1" parent="1">
          <mxGeometry width="50" height="50" relative="1" as="geometry">
            <mxPoint x="1334.3039999999992" y="159.99600000000018" as="sourcePoint" />
            <mxPoint x="1334.2899999999995" y="43.34" as="targetPoint" />
          </mxGeometry>
        </mxCell>
        <mxCell id="Twf1BeBMCTiCZUWOUj3O-13" value="" style="endArrow=none;html=1;fillColor=#dae8fc;strokeColor=#6c8ebf;strokeWidth=11;" edge="1" parent="1">
          <mxGeometry width="50" height="50" relative="1" as="geometry">
            <mxPoint x="-1030" y="40" as="sourcePoint" />
            <mxPoint x="1702.857142857143" y="40" as="targetPoint" />
          </mxGeometry>
        </mxCell>
        <mxCell id="Twf1BeBMCTiCZUWOUj3O-14" value="" style="endArrow=none;html=1;fillColor=#d5e8d4;strokeColor=#82b366;strokeWidth=11;exitX=0.463;exitY=0.002;exitDx=0;exitDy=0;exitPerimeter=0;" edge="1" parent="1">
          <mxGeometry width="50" height="50" relative="1" as="geometry">
            <mxPoint x="120.01399999999917" y="596.6560000000002" as="sourcePoint" />
            <mxPoint x="119.9999999999995" y="480" as="targetPoint" />
          </mxGeometry>
        </mxCell>
        <mxCell id="Twf1BeBMCTiCZUWOUj3O-17" value="" style="endArrow=none;html=1;fillColor=#dae8fc;strokeColor=#6c8ebf;strokeWidth=11;exitX=0.463;exitY=0.002;exitDx=0;exitDy=0;exitPerimeter=0;" edge="1" parent="1">
          <mxGeometry width="50" height="50" relative="1" as="geometry">
            <mxPoint x="-345.6960000000008" y="159.99600000000018" as="sourcePoint" />
            <mxPoint x="-345.7100000000005" y="43.34" as="targetPoint" />
          </mxGeometry>
        </mxCell>
        <mxCell id="Twf1BeBMCTiCZUWOUj3O-18" value="" style="endArrow=none;html=1;fillColor=#dae8fc;strokeColor=#6c8ebf;strokeWidth=11;exitX=0.463;exitY=0.002;exitDx=0;exitDy=0;exitPerimeter=0;" edge="1" parent="1">
          <mxGeometry width="50" height="50" relative="1" as="geometry">
            <mxPoint x="-905.6960000000008" y="159.99600000000018" as="sourcePoint" />
            <mxPoint x="-905.7100000000005" y="43.34" as="targetPoint" />
          </mxGeometry>
        </mxCell>
        <mxCell id="Twf1BeBMCTiCZUWOUj3O-19" value="" style="endArrow=none;html=1;fillColor=#d5e8d4;strokeColor=#82b366;strokeWidth=11;exitX=0.463;exitY=0.002;exitDx=0;exitDy=0;exitPerimeter=0;" edge="1" parent="1">
          <mxGeometry width="50" height="50" relative="1" as="geometry">
            <mxPoint x="680.0139999999992" y="596.6560000000002" as="sourcePoint" />
            <mxPoint x="679.9999999999995" y="480" as="targetPoint" />
          </mxGeometry>
        </mxCell>
        <mxCell id="Twf1BeBMCTiCZUWOUj3O-20" value="" style="endArrow=none;html=1;fillColor=#d5e8d4;strokeColor=#82b366;strokeWidth=11;exitX=0.463;exitY=0.002;exitDx=0;exitDy=0;exitPerimeter=0;" edge="1" parent="1">
          <mxGeometry width="50" height="50" relative="1" as="geometry">
            <mxPoint x="1240.0139999999992" y="596.6560000000002" as="sourcePoint" />
            <mxPoint x="1240" y="480" as="targetPoint" />
          </mxGeometry>
        </mxCell>
        <mxCell id="Twf1BeBMCTiCZUWOUj3O-21" value="" style="endArrow=none;html=1;fillColor=#d5e8d4;strokeColor=#82b366;strokeWidth=11;exitX=0.463;exitY=0.002;exitDx=0;exitDy=0;exitPerimeter=0;" edge="1" parent="1">
          <mxGeometry width="50" height="50" relative="1" as="geometry">
            <mxPoint x="-439.9860000000008" y="596.6560000000002" as="sourcePoint" />
            <mxPoint x="-440.00000000000045" y="480" as="targetPoint" />
          </mxGeometry>
        </mxCell>
        <mxCell id="Twf1BeBMCTiCZUWOUj3O-22" value="" style="endArrow=none;html=1;fillColor=#d5e8d4;strokeColor=#82b366;strokeWidth=11;exitX=0.463;exitY=0.002;exitDx=0;exitDy=0;exitPerimeter=0;" edge="1" parent="1">
          <mxGeometry width="50" height="50" relative="1" as="geometry">
            <mxPoint x="-999.9860000000008" y="596.6560000000002" as="sourcePoint" />
            <mxPoint x="-1000.0000000000005" y="480" as="targetPoint" />
          </mxGeometry>
        </mxCell>
        <mxCell id="Twf1BeBMCTiCZUWOUj3O-23" value="" style="endArrow=none;html=1;fillColor=#d5e8d4;strokeColor=#82b366;strokeWidth=11;" edge="1" parent="1">
          <mxGeometry width="50" height="50" relative="1" as="geometry">
            <mxPoint x="1737.142857142857" y="600" as="sourcePoint" />
            <mxPoint x="-1030" y="600" as="targetPoint" />
          </mxGeometry>
        </mxCell>
        <mxCell id="Twf1BeBMCTiCZUWOUj3O-25" value="&lt;font style=&quot;font-size: 17px&quot;&gt;Virtual&lt;/font&gt;-&lt;font style=&quot;font-size: 17px&quot;&gt;kubelet&lt;/font&gt;" style="rounded=0;whiteSpace=wrap;html=1;strokeColor=#FF3333;strokeWidth=6;" vertex="1" parent="1">
          <mxGeometry x="-310" y="370" width="120" height="80" as="geometry" />
        </mxCell>
        <mxCell id="Twf1BeBMCTiCZUWOUj3O-26" value="" style="endArrow=none;dashed=1;html=1;dashPattern=1 3;strokeWidth=13;fillColor=#6a00ff;strokeColor=#3700CC;entryX=0.5;entryY=1;entryDx=0;entryDy=0;" edge="1" parent="1" target="Twf1BeBMCTiCZUWOUj3O-1">
          <mxGeometry width="50" height="50" relative="1" as="geometry">
            <mxPoint x="215" y="760" as="sourcePoint" />
            <mxPoint x="260" y="840" as="targetPoint" />
          </mxGeometry>
        </mxCell>
        <mxCell id="Twf1BeBMCTiCZUWOUj3O-27" value="" style="endArrow=none;dashed=1;html=1;dashPattern=1 3;strokeWidth=13;fillColor=#6a00ff;strokeColor=#3700CC;entryX=0.5;entryY=1;entryDx=0;entryDy=0;" edge="1" parent="1">
          <mxGeometry width="50" height="50" relative="1" as="geometry">
            <mxPoint x="760" y="756" as="sourcePoint" />
            <mxPoint x="760" y="480" as="targetPoint" />
          </mxGeometry>
        </mxCell>
        <mxCell id="Twf1BeBMCTiCZUWOUj3O-28" value="" style="endArrow=none;dashed=1;html=1;dashPattern=1 3;strokeWidth=13;fillColor=#6a00ff;strokeColor=#3700CC;entryX=0.5;entryY=1;entryDx=0;entryDy=0;" edge="1" parent="1">
          <mxGeometry width="50" height="50" relative="1" as="geometry">
            <mxPoint x="1320" y="756.0000000000002" as="sourcePoint" />
            <mxPoint x="1320" y="480" as="targetPoint" />
          </mxGeometry>
        </mxCell>
        <mxCell id="Twf1BeBMCTiCZUWOUj3O-29" value="" style="endArrow=none;dashed=1;html=1;dashPattern=1 3;strokeWidth=13;fillColor=#6a00ff;strokeColor=#3700CC;" edge="1" parent="1">
          <mxGeometry width="50" height="50" relative="1" as="geometry">
            <mxPoint x="-1030" y="760" as="sourcePoint" />
            <mxPoint x="1741.4285714285713" y="760" as="targetPoint" />
          </mxGeometry>
        </mxCell>
        <mxCell id="Twf1BeBMCTiCZUWOUj3O-30" value="&lt;font style=&quot;font-size: 26px&quot;&gt;Pod&lt;/font&gt;" style="ellipse;whiteSpace=wrap;html=1;strokeColor=#0000CC;strokeWidth=6;" vertex="1" parent="1">
          <mxGeometry x="1130" y="770" width="120" height="80" as="geometry" />
        </mxCell>
        <mxCell id="Twf1BeBMCTiCZUWOUj3O-31" value="&lt;font style=&quot;font-size: 26px&quot;&gt;VM&lt;/font&gt;" style="ellipse;whiteSpace=wrap;html=1;strokeColor=#0000CC;strokeWidth=6;" vertex="1" parent="1">
          <mxGeometry x="1380" y="770" width="120" height="80" as="geometry" />
        </mxCell>
        <mxCell id="Twf1BeBMCTiCZUWOUj3O-32" value="&lt;font style=&quot;font-size: 26px&quot;&gt;Pod&lt;/font&gt;" style="ellipse;whiteSpace=wrap;html=1;strokeWidth=6;strokeColor=#FF0000;" vertex="1" parent="1">
          <mxGeometry x="610" y="770" width="120" height="80" as="geometry" />
        </mxCell>
        <mxCell id="Twf1BeBMCTiCZUWOUj3O-34" value="&lt;font color=&quot;#3333FF&quot;&gt;&lt;b&gt;&lt;font style=&quot;font-size: 26px&quot;&gt;Provider&lt;/font&gt;&lt;/b&gt;&lt;/font&gt;" style="text;html=1;align=center;verticalAlign=middle;resizable=0;points=[];autosize=1;strokeWidth=10;" vertex="1" parent="1">
          <mxGeometry x="1740" y="30" width="140" height="20" as="geometry" />
        </mxCell>
        <mxCell id="Twf1BeBMCTiCZUWOUj3O-35" value="&lt;b&gt;&lt;font style=&quot;font-size: 26px&quot; color=&quot;#00CC00&quot;&gt;Managerment + API&lt;/font&gt;&lt;/b&gt;" style="text;html=1;align=center;verticalAlign=middle;resizable=0;points=[];autosize=1;strokeWidth=10;" vertex="1" parent="1">
          <mxGeometry x="1740" y="590" width="310" height="20" as="geometry" />
        </mxCell>
        <mxCell id="Twf1BeBMCTiCZUWOUj3O-36" value="&lt;b&gt;&lt;font style=&quot;font-size: 26px&quot; color=&quot;#6600CC&quot;&gt;Selfservice&lt;/font&gt;&lt;/b&gt;" style="text;html=1;align=center;verticalAlign=middle;resizable=0;points=[];autosize=1;strokeWidth=10;" vertex="1" parent="1">
          <mxGeometry x="1775" y="750" width="170" height="20" as="geometry" />
        </mxCell>
      </root>
    </mxGraphModel>
  </diagram>
</mxfile>
